# xmcd CD database file
#
# Track frame offsets:
#	150
#	40212
#	69990
#	107575
#	136580
#	169477
#	210280
#	250980
#
# Disc length: 3607 seconds
#
# Revision: 0
# Processed by: cddbd v1.5.1PL0 Copyright (c) Steve Scherf et al.
# Submitted via: CDex 1.51
#
DISCID=660e1508
DTITLE=Makoto Ozone - DUET with Satoru Shionoya
DYEAR=2005
DGENRE=Jazz
TTITLE0=あこがれのリオデジャネイロ
TTITLE1=Cat Dance
TTITLE2=Valse
TTITLE3=Passage-Satoru Shinoya Solo
TTITLE4=Play-Makoto Ozone Solo
TTITLE5=Something's Happening
TTITLE6=Heroes sin Nombre
TTITLE7=Misty
EXTD=YEAR: 2005.09.21
EXTT0=
EXTT1=
EXTT2=
EXTT3=
EXTT4=
EXTT5=
EXTT6=
EXTT7=
PLAYORDER=
